<svg width="140" height="56" viewBox="0 0 140 56" fill="none" xmlns="http://www.w3.org/2000/svg">
<path fill-rule="evenodd" clip-rule="evenodd" d="M38.5707 16.7499L27.0612 39.2499H16.2505L21.0672 29.9249H20.8511C16.8774 35.0834 10.9484 38.4793 2.50049 39.2499V30.054C2.50049 30.054 7.9048 29.7348 11.0818 26.3946H2.50049V16.7501H12.145V24.6825L12.3615 24.6816L16.3026 16.7501H23.5965V24.6322L23.8129 24.6319L27.9019 16.7499H38.5707Z" fill="black"/>
<path d="M101.333 36.7665H104.439V18.9375H101.333V36.7665Z" fill="black"/>
<path fill-rule="evenodd" clip-rule="evenodd" d="M84.2096 36.5847C84.8846 36.8653 85.5711 37.0057 86.2689 37.0057C87.4218 37.0057 88.4534 36.7251 89.3637 36.1637C90.2738 35.6025 90.9793 34.8288 91.4799 33.8427C91.9806 32.8491 92.2308 31.7226 92.2308 30.4635C92.2308 29.2043 91.9729 28.078 91.4572 27.0843C90.9413 26.0907 90.2246 25.3208 89.3067 24.7746C88.3889 24.2209 87.3459 23.9479 86.1778 23.9554C85.4346 23.9554 84.7216 24.0996 84.0388 24.3878C83.3562 24.676 82.7873 25.0856 82.3322 25.6166C82.2971 25.657 82.2629 25.6978 82.2298 25.7391V18.9492H79.1123V36.7668H82.2071L82.2008 35.1023C82.2808 35.2005 82.3664 35.2963 82.4573 35.3901C82.9503 35.8983 83.5344 36.2965 84.2096 36.5847ZM87.3953 33.7062C86.8871 34.0172 86.3068 34.1727 85.6544 34.1727C85.0097 34.1727 84.4181 34.0133 83.8796 33.6948C83.3409 33.3686 82.9124 32.925 82.5938 32.3636C82.2828 31.8023 82.1273 31.1651 82.1273 30.4521C82.1198 29.7391 82.2714 29.102 82.5824 28.5407C82.9011 27.9718 83.3296 27.5318 83.8682 27.2209C84.4067 26.9023 85.0022 26.7468 85.6544 26.7544C86.3068 26.7468 86.8871 26.8985 87.3953 27.2095C87.9111 27.5129 88.3054 27.949 88.5786 28.5179C88.8592 29.0792 88.9996 29.724 88.9996 30.4521C88.9996 31.1803 88.8592 31.8251 88.5786 32.3863C88.3054 32.9477 87.9111 33.3876 87.3953 33.7062Z" fill="black"/>
<path d="M43.0703 20.0186H46.6202L49.7957 31.6155L53.1738 20.0186H56.1321L59.7957 31.3828L62.8449 20.0186H66.0989L61.2976 36.7667H58.2369L54.5114 25.6647L51.0917 36.7667H47.9969L43.0703 20.0186Z" fill="black"/>
<path fill-rule="evenodd" clip-rule="evenodd" d="M71.3418 37.0626C70.1053 37.0702 68.9903 36.7971 67.9966 36.2434C67.0105 35.6821 66.2331 34.9046 65.6641 33.9109C65.1029 32.9173 64.8223 31.7833 64.8223 30.5089C64.8223 29.2726 65.1105 28.1538 65.687 27.1526C66.2634 26.1513 67.0446 25.37 68.0308 24.8087C69.0169 24.2474 70.1166 23.9668 71.3303 23.9668C72.6956 23.9668 73.8903 24.2702 74.9143 24.877C75.9459 25.4838 76.7158 26.3447 77.224 27.4598C77.7398 28.5672 77.9256 29.8377 77.7815 31.2713H68.0356C68.0629 31.8424 68.2054 32.3621 68.4631 32.8301C68.7514 33.3458 69.1534 33.7478 69.6691 34.0361C70.185 34.3243 70.7614 34.4684 71.3986 34.4684C71.884 34.4608 72.3354 34.3774 72.7525 34.2182C73.1698 34.0513 73.5224 33.8276 73.8106 33.5468C74.1065 33.2662 74.3151 32.9477 74.4365 32.5912H77.6905C77.4933 33.4634 77.0989 34.2409 76.5073 34.9236C75.9155 35.5987 75.1723 36.1258 74.2771 36.5051C73.3821 36.8843 72.4036 37.0702 71.3418 37.0626ZM68.4745 28.1424C68.2928 28.4594 68.1668 28.8007 68.0966 29.1664H74.557C74.5101 28.7044 74.3675 28.2835 74.1293 27.9035C73.8561 27.456 73.4845 27.1108 73.0143 26.8681C72.544 26.6178 72.013 26.4927 71.4214 26.4927C70.7918 26.4927 70.2191 26.6368 69.7033 26.925C69.1875 27.2132 68.7779 27.6191 68.4745 28.1424Z" fill="black"/>
<path d="M94.5181 24.2282C94.5181 23.2118 94.7494 22.3092 95.2121 21.5203C95.6747 20.7239 96.3234 20.1057 97.1577 19.6657C97.9996 19.2182 98.982 18.9868 100.104 18.9717V21.7365C99.5811 21.7441 99.1336 21.854 98.762 22.0664C98.3979 22.2712 98.1173 22.5708 97.92 22.9653C97.7385 23.3284 97.6405 23.7494 97.6261 24.2282H100.036V26.8565H97.6242V36.7665H94.5181V26.8565H92.5156V24.2282H94.5181Z" fill="black"/>
<path fill-rule="evenodd" clip-rule="evenodd" d="M112.335 37.0395C111.068 37.0395 109.934 36.7626 108.933 36.209C107.939 35.6476 107.158 34.874 106.589 33.8879C106.028 32.8942 105.747 31.7679 105.747 30.5086C105.747 29.242 106.028 28.1118 106.589 27.1181C107.158 26.1169 107.939 25.3394 108.933 24.7857C109.934 24.2319 111.068 23.9551 112.335 23.9551C113.609 23.9551 114.747 24.2319 115.748 24.7857C116.757 25.3394 117.542 26.1131 118.103 27.1067C118.665 28.1004 118.949 29.2344 118.957 30.5086C118.949 31.7679 118.665 32.8942 118.103 33.8879C117.55 34.874 116.768 35.6476 115.759 36.209C114.751 36.7626 113.609 37.0395 112.335 37.0395ZM112.335 34.1837C113.002 34.1837 113.594 34.032 114.11 33.7286C114.626 33.4176 115.024 32.9852 115.304 32.4315C115.585 31.8702 115.725 31.2292 115.725 30.5086C115.725 29.7805 115.585 29.1357 115.304 28.5745C115.024 28.0132 114.626 27.5808 114.11 27.2774C113.594 26.9664 113.002 26.8109 112.335 26.8109C111.675 26.8109 111.087 26.9664 110.571 27.2774C110.063 27.5808 109.669 28.0132 109.388 28.5745C109.107 29.1357 108.971 29.7805 108.978 30.5086C108.978 31.2292 109.119 31.8702 109.399 32.4315C109.688 32.9852 110.082 33.4176 110.583 33.7286C111.091 34.032 111.675 34.1837 112.335 34.1837Z" fill="black"/>
<path d="M122.313 24.2285H118.854L122.598 36.7669H125.624L128.086 28.7586L130.744 36.7669H133.725L137.48 24.2285H134.351L132.221 32.0329L129.867 24.2285H126.842L124.499 32.2047L122.313 24.2285Z" fill="black"/>
</svg>
