<svg width="133" height="45" viewBox="0 0 133 45" fill="none" xmlns="http://www.w3.org/2000/svg">
<g clip-path="url(#clip0_111_7047)">
<path d="M28.982 13.3909C27.7874 12.3124 26.526 11.2922 25.235 10.2064C24.6933 10.6655 24.2927 10.3376 23.8104 9.9878C22.8161 9.25909 21.7848 8.55953 20.7163 7.93283C19.5217 7.23327 18.2307 6.84705 16.8061 7.13853C16.0196 7.29885 15.5151 7.75794 15.3518 8.49394C15.2331 9.05505 15.1812 9.6526 15.248 10.221C15.5373 12.7642 16.9174 14.7172 18.8095 16.3786C20.0931 17.5008 21.4064 18.6085 22.6084 19.8036C25.183 22.3613 26.7041 25.2398 24.9901 29.0582C27.1715 27.8413 29.1675 26.6608 31.2376 25.6041C32.588 24.9118 33.6638 24.0592 34.0126 22.5362V21.312C33.3671 18.0401 31.3934 15.5697 28.982 13.3909Z" fill="url(#paint0_linear_111_7047)"/>
<path d="M21.1461 20.8092C17.0059 18.3535 12.8508 15.9268 8.72542 13.4565C8.19861 13.1432 7.8202 13.1359 7.28598 13.4565C4.87455 14.8775 2.42602 16.2548 -0.000244141 17.6466V17.8215C0.266868 17.9454 0.5414 18.0474 0.786252 18.1931C7.00403 21.7711 13.2218 25.3564 19.4396 28.9344C19.9219 29.2113 20.4338 29.4809 20.9755 29.6048C21.7249 29.7797 22.4817 29.6849 22.964 28.9999C24.4924 26.843 23.4463 22.1865 21.1461 20.8238V20.8092Z" fill="url(#paint1_linear_111_7047)"/>
<path d="M24.3002 8.15881C24.7529 8.47944 25.0496 8.53774 25.5393 8.25354C27.7059 7.00016 29.9022 5.79049 32.091 4.55897C32.3284 4.42051 32.5585 4.2602 32.8552 4.07802C30.9558 2.48942 29.0563 1.13402 26.7117 0.507324H25.4651C22.8385 2.02305 20.2119 3.53148 17.7263 4.96705C18.7577 5.28768 19.8558 5.47715 20.7981 5.95081C22.0298 6.57022 23.1724 7.3718 24.3002 8.17338V8.15881Z" fill="url(#paint2_linear_111_7047)"/>
<path d="M14.5554 28.0524C12.2331 26.7553 9.94034 25.4291 7.62537 24.1174C7.46214 24.0227 7.26922 23.9644 7.04663 23.8696V44.2299C7.20987 44.1789 7.32858 44.1643 7.41762 44.1133C9.84389 42.7141 12.2776 41.3223 14.6816 39.8795C14.9264 39.7337 15.1119 39.2746 15.1119 38.9613C15.1416 35.6675 15.1194 32.381 15.1416 29.0872C15.1416 28.5917 15.0006 28.3002 14.548 28.0524H14.5554Z" fill="url(#paint3_linear_111_7047)"/>
</g>
<path d="M123.513 31.1471V17.6699H124.708C124.759 17.9743 124.802 18.2713 124.868 18.6626C125.071 18.5394 125.23 18.4525 125.382 18.3511C128.107 16.4527 130.961 17.525 131.78 20.7566C131.853 21.032 131.932 21.3073 132.012 21.5827V23.4955C131.838 24.039 131.7 24.6041 131.49 25.1258C130.65 27.2054 128.534 28.1256 126.541 27.2706C125.969 27.0242 125.455 26.6474 124.73 26.2199V31.1398H123.513V31.1471ZM124.795 22.4232C124.795 22.9159 124.853 23.4158 124.781 23.8941C124.643 24.7853 125.056 25.3215 125.795 25.6838C126.128 25.8504 126.462 26.0388 126.81 26.162C128.375 26.7199 129.737 26.1402 130.338 24.5969C130.882 23.1985 130.889 21.7566 130.36 20.3509C129.845 19.0032 128.614 18.3511 127.237 18.6191C125.599 18.938 124.802 19.8364 124.802 21.3725C124.802 21.7203 124.802 22.0681 124.802 22.4159L124.795 22.4232Z" fill="#1B2344"/>
<path d="M81.1683 13.5833V22.5318C82.429 21.0754 83.6029 19.8074 84.6535 18.4524C85.2766 17.6554 85.9577 17.4307 87.0084 17.7061C86.3128 18.4669 85.6606 19.1842 85.0085 19.8943C84.3178 20.6479 84.2212 21.4835 84.7187 22.4013C85.5882 23.9954 86.4504 25.5967 87.3562 27.2632C86.5229 27.4734 85.965 27.4661 85.5665 26.5821C84.8636 25.0315 84.0304 23.5389 83.1754 21.8796C82.458 22.6984 81.5451 23.3433 81.2263 24.2128C80.9002 25.0968 81.1538 26.2054 81.1538 27.2922H79.7771V13.5833H81.1683Z" fill="#1B2344"/>
<path d="M54.091 13.5833V18.648C54.6851 18.3727 55.1633 18.1118 55.6706 17.938C56.2937 17.7278 56.9313 17.4887 57.5762 17.4307C59.0253 17.3076 60.1847 18.1698 60.2571 19.6552C60.3875 22.184 60.2933 24.7272 60.2933 27.3212H59.1558C59.1413 27.0241 59.1195 26.7198 59.1195 26.4155C59.1195 24.4736 59.1268 22.539 59.1195 20.5971C59.105 19.0321 58.3008 18.3799 56.7792 18.6915C56.5835 18.735 56.3806 18.7785 56.1922 18.8364C54.2069 19.4451 54.1127 19.5755 54.1127 21.6405C54.1127 23.5172 54.1127 25.3866 54.1127 27.3212H52.8882V13.5833H54.1055H54.091Z" fill="#1B2344"/>
<path d="M110.601 17.6698C110.137 19.1914 109.695 20.6551 109.246 22.1187C108.789 23.6114 108.333 25.104 107.855 26.5966C107.739 26.9589 107.717 27.5168 107.137 27.3502C106.869 27.2705 106.587 26.9154 106.492 26.6256C105.891 24.7852 105.348 22.923 104.782 21.0681C104.703 20.8073 104.608 20.5464 104.435 20.0464C104.058 21.2565 103.753 22.2347 103.456 23.2201C103.087 24.4374 102.732 25.6619 102.326 26.8647C102.254 27.0748 101.978 27.3067 101.761 27.3429C101.601 27.3719 101.268 27.1473 101.21 26.9661C100.247 23.8795 99.3118 20.7928 98.3699 17.7061C99.2901 17.4017 99.6669 17.7568 99.8915 18.5901C100.435 20.5681 101.073 22.5173 101.746 24.7272C102.268 23.0534 102.717 21.6333 103.159 20.2059C103.362 19.5392 103.522 18.8581 103.782 18.2205C103.884 17.9669 104.217 17.6626 104.442 17.6553C104.666 17.6553 105.021 17.9669 105.101 18.2133C105.782 20.329 106.42 22.4665 107.144 24.8431C107.318 24.3577 107.434 24.0896 107.514 23.807C108.05 22.039 108.586 20.2638 109.123 18.4886C109.306 17.8751 109.796 17.6022 110.593 17.6698H110.601Z" fill="#1B2344"/>
<path d="M120.049 27.3139C119.387 27.4153 118.941 26.9516 118.709 25.9227C118.484 26.0894 118.31 26.2705 118.093 26.3792C117.303 26.7777 116.535 27.2921 115.694 27.495C114.318 27.8356 113.151 27.2124 112.658 26.0894C112.13 24.9011 112.499 23.3939 113.615 22.5969C114.122 22.2346 114.724 21.9665 115.318 21.7709C116.223 21.4738 117.151 21.2347 118.086 21.068C118.81 20.9449 118.89 20.5536 118.767 19.9667C118.542 18.8726 117.542 18.177 116.405 18.5393C115.412 18.8581 114.499 19.4378 113.441 19.9594C113.282 19.8218 113.006 19.5827 112.738 19.3508C113.803 17.9017 115.948 17.1046 117.622 17.4959C119.165 17.8582 120.035 18.9161 120.049 20.5464C120.071 22.7708 120.049 25.0025 120.049 27.3066V27.3139ZM118.796 21.7491C117.433 22.2274 116.194 22.5824 115.035 23.1186C114.571 23.336 114.18 23.9011 113.97 24.4011C113.571 25.3285 114.137 26.2777 115.137 26.3937C116.528 26.5531 117.622 25.8285 118.672 25.0387C118.752 24.9808 118.796 24.8358 118.796 24.7344C118.803 23.8214 118.796 22.9012 118.796 21.7491Z" fill="#1B2344"/>
<path d="M68.894 17.6554H70.0316C70.0679 17.9815 70.0968 18.2641 70.1403 18.6264C70.8142 18.3293 71.4518 18.0105 72.1184 17.7641C74.7486 16.8077 76.3934 17.9525 76.4151 20.7494C76.4296 22.9159 76.4151 25.0823 76.4151 27.314H75.1181C75.1181 27.0025 75.1181 26.6981 75.1181 26.3938C75.1181 24.452 75.1326 22.5101 75.1181 20.5682C75.0964 19.0032 74.2704 18.3655 72.7488 18.7061C72.5531 18.7496 72.3503 18.8003 72.1619 18.8582C70.162 19.5031 70.0968 19.5901 70.0968 21.6913C70.0968 23.539 70.0968 25.3867 70.0968 27.3068H68.9013V17.6554H68.894Z" fill="#1B2344"/>
<path d="M89.1821 25.6835C89.5589 25.4154 89.8777 25.1836 90.2183 24.9372C90.5878 25.2343 90.8776 25.6111 91.2617 25.7487C92.0225 26.0386 92.8267 26.3429 93.6238 26.3719C94.5295 26.4009 95.1744 25.7198 95.2686 24.9879C95.3772 24.0967 94.8121 23.6402 94.1165 23.3649C93.2325 23.0098 92.305 22.7707 91.4211 22.4374C89.9574 21.8868 89.3126 20.9231 89.5009 19.6333C89.6676 18.4812 90.6965 17.5828 92.0732 17.4379C93.6165 17.2785 94.986 17.6552 96.1453 18.8943C95.8265 19.1768 95.5367 19.4304 95.341 19.6043C94.5947 19.2203 93.9643 18.8146 93.276 18.5827C92.8702 18.445 92.363 18.5247 91.921 18.6117C91.2762 18.7421 90.711 19.1913 90.7979 19.8362C90.8631 20.3072 91.3341 20.7926 91.7399 21.1187C92.0804 21.3868 92.6021 21.423 93.0296 21.5824C93.7325 21.8433 94.457 22.0607 95.1164 22.4084C96.1453 22.9591 96.6815 23.8576 96.5656 25.0531C96.4569 26.1835 95.6019 27.1544 94.4498 27.4298C92.3703 27.9225 90.6675 27.2196 89.1894 25.6763L89.1821 25.6835Z" fill="#1B2344"/>
<path d="M50.1999 26.5313V27.4298C48.019 28.1616 46.6423 27.2414 46.6205 25.0459C46.606 23.2779 46.6205 21.51 46.6205 19.742C46.6205 19.4594 46.5915 19.1768 46.577 18.8435C46.0409 18.8146 45.5554 18.7928 45.012 18.7638V17.6697C45.4974 17.6335 46.0046 17.5973 46.5988 17.5538V14.1121H47.8523V17.5828H50.1854V18.7711H47.8668C47.8668 19.2928 47.8668 19.742 47.8668 20.1912C47.8668 21.6404 47.8668 23.0895 47.8668 24.5387C47.8668 26.0893 48.2653 26.4733 49.8231 26.4661C49.9536 26.4661 50.084 26.5095 50.2072 26.5385L50.1999 26.5313Z" fill="#1B2344"/>
<path d="M64.0032 17.6555H65.1335V27.3141H64.0032V17.6555Z" fill="#1B2344"/>
<path d="M65.1769 13.7935V15.2354H64.0176V13.7935H65.1769Z" fill="#1B2344"/>
<defs>
<linearGradient id="paint0_linear_111_7047" x1="13.6282" y1="18.0494" x2="36.4703" y2="18.0494" gradientUnits="userSpaceOnUse">
<stop stop-color="#457EF8"/>
<stop offset="1" stop-color="#5E69DF"/>
</linearGradient>
<linearGradient id="paint1_linear_111_7047" x1="-2.00427" y1="21.45" x2="26.7809" y2="21.45" gradientUnits="userSpaceOnUse">
<stop stop-color="#457EF8"/>
<stop offset="1" stop-color="#5E69DF"/>
</linearGradient>
<linearGradient id="paint2_linear_111_7047" x1="16.4462" y1="4.47196" x2="34.8336" y2="4.47196" gradientUnits="userSpaceOnUse">
<stop stop-color="#457EF8"/>
<stop offset="1" stop-color="#5E69DF"/>
</linearGradient>
<linearGradient id="paint3_linear_111_7047" x1="6.36167" y1="34.0497" x2="16.2002" y2="34.0497" gradientUnits="userSpaceOnUse">
<stop stop-color="#457EF8"/>
<stop offset="1" stop-color="#5E69DF"/>
</linearGradient>
<clipPath id="clip0_111_7047">
<rect width="34.0123" height="43.7301" fill="white" transform="translate(-0.000244141 0.5)"/>
</clipPath>
</defs>
</svg>
