<svg width="25" height="25" viewBox="0 0 25 25" fill="none" xmlns="http://www.w3.org/2000/svg">
<path d="M15.5544 8.74319H21.9546C23.0592 8.74319 23.9546 9.63862 23.9546 10.7432V12.8476C23.9546 13.1088 23.9034 13.3675 23.804 13.6091L20.7096 21.124C20.5553 21.4987 20.1901 21.7432 19.7849 21.7432H2.95459C2.40231 21.7432 1.95459 21.2955 1.95459 20.7432V10.7432C1.95459 10.1909 2.40231 9.74319 2.95459 9.74319H6.43643C6.76136 9.74319 7.06602 9.58532 7.2534 9.31987L12.7068 1.59421C12.8493 1.39234 13.1179 1.32484 13.3389 1.43534L15.153 2.34237C16.2046 2.8682 16.7477 4.05578 16.4577 5.19521L15.5544 8.74319ZM7.95459 11.3307V19.7432H19.1152L21.9546 12.8476V10.7432H15.5544C14.2497 10.7432 13.2944 9.51414 13.6162 8.24977L14.5195 4.7018C14.5775 4.47391 14.4689 4.23639 14.2585 4.13123L13.5974 3.80066L8.88734 10.4732C8.63744 10.8273 8.318 11.1175 7.95459 11.3307ZM5.95459 11.7432H3.95459V19.7432H5.95459V11.7432Z" fill="url(#paint0_linear_111_6523)"/>
<defs>
<linearGradient id="paint0_linear_111_6523" x1="0.0930514" y1="11.5628" x2="26.8315" y2="11.5628" gradientUnits="userSpaceOnUse">
<stop stop-color="#457EF8"/>
<stop offset="1" stop-color="#5E69DF"/>
</linearGradient>
</defs>
</svg>
