<svg width="12" height="14" viewBox="0 0 12 14" fill="none" xmlns="http://www.w3.org/2000/svg">
<path d="M1.80622 5.1464C-0.556719 8.74608 1.40262 11.328 2.8419 12.6387C3.28381 13.0411 3.79083 13.373 4.35001 13.5841C5.85596 14.1525 7.18842 14.0366 8.27149 13.6006C10.5921 12.6664 10.1918 9.74979 10.7325 7.30726C10.817 6.92542 10.9893 6.56091 11.2955 6.19508C10.0631 6.19508 9.4201 6.38261 8.93785 6.89167C9.17898 4.05173 8.44062 2.09816 4.7947 0.185547C5.5717 2.51655 4.97264 6.99883 3.82059 7.53924C3.12027 7.86775 2.07913 7.53924 1.80622 5.1464Z" fill="url(#paint0_linear_1_3917)"/>
<defs>
<linearGradient id="paint0_linear_1_3917" x1="0.704697" y1="0.185499" x2="14.0237" y2="10.4191" gradientUnits="userSpaceOnUse">
<stop stop-color="#F2C72F"/>
<stop offset="0.552083" stop-color="#FB9E14"/>
<stop offset="1" stop-color="#E4680D"/>
</linearGradient>
</defs>
</svg>
