<svg width="58" height="58" viewBox="0 0 58 58" fill="none" xmlns="http://www.w3.org/2000/svg">
<path d="M54.9196 43.71C53.3579 42.1482 48.4343 38.5129 43.5461 35.6982C43.4932 35.7776 43.4402 35.8571 43.3872 35.9453C48.9019 27.06 47.8166 15.2276 40.096 7.50705C31.096 -1.48412 16.5107 -1.48412 7.51073 7.50705C-1.48927 16.5159 -1.48045 31.0923 7.51073 40.0924C15.1607 47.7336 26.8343 48.8895 35.6931 43.5424C38.2431 47.9718 41.9578 53.1689 43.7137 54.9248C46.8019 58.013 51.8313 58.0042 54.9196 54.916C58.0079 51.8188 58.0079 46.8071 54.9196 43.71ZM34.0255 34.0218C28.3785 39.66 19.2373 39.66 13.5902 34.0129C7.95199 28.3747 7.94317 19.2335 13.5902 13.5865C19.2285 7.94823 28.3785 7.94823 34.0167 13.5865C39.6638 19.2335 39.6638 28.3835 34.0255 34.0218Z" fill="url(#paint0_linear_1_4005)"/>
<defs>
<linearGradient id="paint0_linear_1_4005" x1="-4.01434" y1="29.0001" x2="64.6206" y2="29.0001" gradientUnits="userSpaceOnUse">
<stop stop-color="#457EF8"/>
<stop offset="1" stop-color="#5E69DF"/>
</linearGradient>
</defs>
</svg>
