<svg width="22" height="22" viewBox="0 0 22 22" fill="none" xmlns="http://www.w3.org/2000/svg">
<path d="M20.0127 19.8652L14.0127 13.8652M16.0127 8.86523C16.0127 9.78449 15.8316 10.6947 15.4799 11.544C15.1281 12.3933 14.6125 13.165 13.9624 13.815C13.3124 14.465 12.5408 14.9806 11.6915 15.3324C10.8422 15.6842 9.93195 15.8652 9.01269 15.8652C8.09344 15.8652 7.18319 15.6842 6.33391 15.3324C5.48463 14.9806 4.71296 14.465 4.06295 13.815C3.41294 13.165 2.89732 12.3933 2.54554 11.544C2.19376 10.6947 2.0127 9.78449 2.0127 8.86523C2.0127 7.00872 2.75019 5.22824 4.06295 3.91549C5.3757 2.60273 7.15618 1.86523 9.01269 1.86523C10.8692 1.86523 12.6497 2.60273 13.9624 3.91549C15.2752 5.22824 16.0127 7.00872 16.0127 8.86523Z" stroke="black" stroke-width="2.44444" stroke-linecap="round" stroke-linejoin="round"/>
</svg>
